<svg xmlns="http://www.w3.org/2000/svg" xmlns:xlink="http://www.w3.org/1999/xlink" width="860" height="494.2"><rect width="860" height="494.2" rx="5" ry="5" class="a"/><svg y="0%" x="0%"><circle cx="20" cy="20" r="6" fill="#ff5f58"/><circle cx="40" cy="20" r="6" fill="#ffbd2e"/><circle cx="60" cy="20" r="6" fill="#18c132"/></svg><svg height="434.2" viewBox="0 0 82 43.42" width="820" x="15" xmlns="http://www.w3.org/2000/svg" xmlns:xlink="http://www.w3.org/1999/xlink" y="50"><style>@keyframes m{0%{transform:translateX(0)}4.8%{transform:translateX(-82px)}17.7%{transform:translateX(-164px)}21%{transform:translateX(-246px)}24.2%{transform:translateX(-328px)}27.4%{transform:translateX(-410px)}30.6%{transform:translateX(-492px)}33.9%{transform:translateX(-574px)}37.1%{transform:translateX(-656px)}40.3%{transform:translateX(-738px)}43.5%{transform:translateX(-820px)}51.6%{transform:translateX(-902px)}54.8%{transform:translateX(-984px)}67.7%{transform:translateX(-1066px)}71%{transform:translateX(-1148px)}83.9%{transform:translateX(-1230px)}87.1%{transform:translateX(-1312px)}96.8%{transform:translateX(-1394px)}to{transform:translateX(-1476px)}}.a{fill:#282d35}.f,.g{white-space:pre}.f{fill:#a8cc8c;font-weight:700}.g{fill:#b9c0cb}.h{fill:#e88388}.h,.i,.j,.k{white-space:pre}.i{fill:#b9c0cb;font-weight:700}.j,.k{fill:#dbab79}.k{fill:#a8cc8c}</style><g font-family="Monaco,Consolas,Menlo,'Bitstream Vera Sans Mono','Powerline Symbols',monospace" font-size="1.67"><defs><symbol id="1"><text y="1.67" class="f">$</text><text x="2.004" y="1.67" class="g">brand-voice</text><text x="14.028" y="1.67" class="g">check</text><text x="20.04" y="1.67" class="g">docs/quickstart.md</text></symbol><symbol id="2"><text y="1.67" class="g">docs/quickstart.md</text></symbol><symbol id="3"><text x="2.004" y="1.67" class="g">3</text><text x="5.01" y="1.67" class="h">error</text><text x="14.028" y="1.67" class="g">forbidden-term</text><text x="31.062" y="1.67" class="g">Forbidden</text><text x="41.082" y="1.67" class="g">term:</text><text x="47.094" y="1.67" class="i">&quot;simply&quot;</text></symbol><symbol id="4"><text x="2.004" y="1.67" class="g">4</text><text x="5.01" y="1.67" class="j">warning</text><text x="14.028" y="1.67" class="g">avoid-term</text><text x="31.062" y="1.67" class="g">Avoid</text><text x="37.074" y="1.67" class="g">term:</text><text x="43.086" y="1.67" class="i">&quot;leverage&quot;</text></symbol><symbol id="5"><text x="2.004" y="1.67" class="g">4</text><text x="5.01" y="1.67" class="j">warning</text><text x="14.028" y="1.67" class="g">avoid-term</text><text x="31.062" y="1.67" class="g">Avoid</text><text x="37.074" y="1.67" class="g">term:</text><text x="43.086" y="1.67" class="i">&quot;utilize&quot;</text></symbol><symbol id="6"><text x="2.004" y="1.67" class="g">5</text><text x="5.01" y="1.67" class="j">warning</text><text x="14.028" y="1.67" class="g">sentence-length</text><text x="31.062" y="1.67" class="g">Sentence</text><text x="40.08" y="1.67" class="g">too</text><text x="44.088" y="1.67" class="g">long:</text><text x="50.1" y="1.67" class="g">32</text><text x="53.106" y="1.67" class="g">words</text><text x="59.118" y="1.67" class="g">(max</text><text x="64.128" y="1.67" class="g">25)</text></symbol><symbol id="7"><text x="2.004" y="1.67" class="g">7</text><text x="5.01" y="1.67" class="j">warning</text><text x="14.028" y="1.67" class="g">passive-voice</text><text x="31.062" y="1.67" class="g">Possible</text><text x="40.08" y="1.67" class="g">passive</text><text x="48.096" y="1.67" class="g">voice:</text><text x="55.11" y="1.67" class="i">&quot;is</text><text x="59.118" y="1.67" class="i">configured&quot;</text></symbol><symbol id="8"><text y="1.67" class="g">Total:</text><text x="7.014" y="1.67" class="h">5</text><text x="9.018" y="1.67" class="h">violations</text><text x="20.04" y="1.67" class="h">(1</text><text x="23.046" y="1.67" class="h">error)</text><text x="30.06" y="1.67" class="g">across</text><text x="37.074" y="1.67" class="g">1</text><text x="39.078" y="1.67" class="g">file</text></symbol><symbol id="9"><text y="1.67" class="g">#</text><text x="2.004" y="1.67" class="g">Claude</text><text x="9.018" y="1.67" class="g">reads</text><text x="15.03" y="1.67" class="g">this,</text><text x="21.042" y="1.67" class="g">corrects</text><text x="30.06" y="1.67" class="g">the</text><text x="34.068" y="1.67" class="g">file,</text><text x="40.08" y="1.67" class="g">and</text><text x="44.088" y="1.67" class="g">retries</text><text x="52.104" y="1.67" class="g">—</text><text x="54.108" y="1.67" class="g">automatically.</text></symbol><symbol id="10"><text y="1.67" class="k">✓</text><text x="2.004" y="1.67" class="k">No</text><text x="5.01" y="1.67" class="k">violations</text><text x="16.032" y="1.67" class="k">found</text><text x="22.044" y="1.67" class="k">in</text><text x="25.05" y="1.67" class="k">docs/quickstart.md</text></symbol><symbol id="a"><path fill="transparent" d="M0 0h82v21H0z"/></symbol></defs><path class="a" d="M0 0h82v43.42H0z"/><g style="animation-duration:6.2s;animation-iteration-count:infinite;animation-name:m;animation-timing-function:steps(1,end)"><svg width="1558"><svg><use xlink:href="#a"/></svg><svg x="82"><use xlink:href="#a"/><use xlink:href="#1"/></svg><svg x="164"><use xlink:href="#a"/><use xlink:href="#1"/></svg><svg x="246"><use xlink:href="#a"/><use xlink:href="#1"/><use xlink:href="#2" y="4.342"/></svg><svg x="328"><use xlink:href="#a"/><use xlink:href="#1"/><use xlink:href="#2" y="4.342"/><use xlink:href="#3" y="6.513"/></svg><svg x="410"><use xlink:href="#a"/><use xlink:href="#1"/><use xlink:href="#2" y="4.342"/><use xlink:href="#3" y="6.513"/><use xlink:href="#4" y="8.684"/></svg><svg x="492"><use xlink:href="#a"/><use xlink:href="#1"/><use xlink:href="#2" y="4.342"/><use xlink:href="#3" y="6.513"/><use xlink:href="#4" y="8.684"/><use xlink:href="#5" y="10.855"/></svg><svg x="574"><use xlink:href="#a"/><use xlink:href="#1"/><use xlink:href="#2" y="4.342"/><use xlink:href="#3" y="6.513"/><use xlink:href="#4" y="8.684"/><use xlink:href="#5" y="10.855"/><use xlink:href="#6" y="13.026"/></svg><svg x="656"><use xlink:href="#a"/><use xlink:href="#1"/><use xlink:href="#2" y="4.342"/><use xlink:href="#3" y="6.513"/><use xlink:href="#4" y="8.684"/><use xlink:href="#5" y="10.855"/><use xlink:href="#6" y="13.026"/><use xlink:href="#7" y="15.197"/></svg><svg x="738"><use xlink:href="#a"/><use xlink:href="#1"/><use xlink:href="#2" y="4.342"/><use xlink:href="#3" y="6.513"/><use xlink:href="#4" y="8.684"/><use xlink:href="#5" y="10.855"/><use xlink:href="#6" y="13.026"/><use xlink:href="#7" y="15.197"/></svg><svg x="820"><use xlink:href="#a"/><use xlink:href="#1"/><use xlink:href="#2" y="4.342"/><use xlink:href="#3" y="6.513"/><use xlink:href="#4" y="8.684"/><use xlink:href="#5" y="10.855"/><use xlink:href="#6" y="13.026"/><use xlink:href="#7" y="15.197"/><use xlink:href="#8" y="19.539"/></svg><svg x="902"><use xlink:href="#a"/><use xlink:href="#1"/><use xlink:href="#2" y="4.342"/><use xlink:href="#3" y="6.513"/><use xlink:href="#4" y="8.684"/><use xlink:href="#5" y="10.855"/><use xlink:href="#6" y="13.026"/><use xlink:href="#7" y="15.197"/><use xlink:href="#8" y="19.539"/></svg><svg x="984"><use xlink:href="#a"/><use xlink:href="#1"/><use xlink:href="#2" y="4.342"/><use xlink:href="#3" y="6.513"/><use xlink:href="#4" y="8.684"/><use xlink:href="#5" y="10.855"/><use xlink:href="#6" y="13.026"/><use xlink:href="#7" y="15.197"/><use xlink:href="#8" y="19.539"/><use xlink:href="#9" y="23.881"/></svg><svg x="1066"><use xlink:href="#a"/><use xlink:href="#1"/><use xlink:href="#2" y="4.342"/><use xlink:href="#3" y="6.513"/><use xlink:href="#4" y="8.684"/><use xlink:href="#5" y="10.855"/><use xlink:href="#6" y="13.026"/><use xlink:href="#7" y="15.197"/><use xlink:href="#8" y="19.539"/><use xlink:href="#9" y="23.881"/></svg><svg x="1148"><use xlink:href="#a"/><use xlink:href="#1"/><use xlink:href="#2" y="4.342"/><use xlink:href="#3" y="6.513"/><use xlink:href="#4" y="8.684"/><use xlink:href="#5" y="10.855"/><use xlink:href="#6" y="13.026"/><use xlink:href="#7" y="15.197"/><use xlink:href="#8" y="19.539"/><use xlink:href="#9" y="23.881"/><use xlink:href="#1" y="28.223"/></svg><svg x="1230"><use xlink:href="#a"/><use xlink:href="#1"/><use xlink:href="#2" y="4.342"/><use xlink:href="#3" y="6.513"/><use xlink:href="#4" y="8.684"/><use xlink:href="#5" y="10.855"/><use xlink:href="#6" y="13.026"/><use xlink:href="#7" y="15.197"/><use xlink:href="#8" y="19.539"/><use xlink:href="#9" y="23.881"/><use xlink:href="#1" y="28.223"/></svg><svg x="1312"><use xlink:href="#a"/><use xlink:href="#1"/><use xlink:href="#2" y="4.342"/><use xlink:href="#3" y="6.513"/><use xlink:href="#4" y="8.684"/><use xlink:href="#5" y="10.855"/><use xlink:href="#6" y="13.026"/><use xlink:href="#7" y="15.197"/><use xlink:href="#8" y="19.539"/><use xlink:href="#9" y="23.881"/><use xlink:href="#1" y="28.223"/><use xlink:href="#10" y="32.565"/></svg><svg x="1394"><use xlink:href="#a"/><use xlink:href="#1"/><use xlink:href="#2" y="4.342"/><use xlink:href="#3" y="6.513"/><use xlink:href="#4" y="8.684"/><use xlink:href="#5" y="10.855"/><use xlink:href="#6" y="13.026"/><use xlink:href="#7" y="15.197"/><use xlink:href="#8" y="19.539"/><use xlink:href="#9" y="23.881"/><use xlink:href="#1" y="28.223"/><use xlink:href="#10" y="32.565"/></svg><svg x="1476"><use xlink:href="#a"/><use xlink:href="#1"/><use xlink:href="#2" y="4.342"/><use xlink:href="#3" y="6.513"/><use xlink:href="#4" y="8.684"/><use xlink:href="#5" y="10.855"/><use xlink:href="#6" y="13.026"/><use xlink:href="#7" y="15.197"/><use xlink:href="#8" y="19.539"/><use xlink:href="#9" y="23.881"/><use xlink:href="#1" y="28.223"/><use xlink:href="#10" y="32.565"/><text y="38.577" class="f">$</text></svg></svg></g></g></svg></svg>